<svg width="699" height="76" viewBox="0 0 699 76" fill="none" xmlns="http://www.w3.org/2000/svg">
<path d="M33.7778 76V48.1333L14.1444 67.8722L8.12778 61.8556L27.8667 42.2222H0V33.7778H27.8667L8.12778 14.1444L14.1444 8.12778L33.7778 27.8667V0H42.2222V27.8667L61.8556 8.12778L67.8722 14.1444L48.1333 33.7778H76V42.2222H48.1333L67.8722 61.8556L61.8556 67.8722L42.2222 48.1333V76H33.7778Z" fill="#314DCB"/>
<path d="M98.0339 68V7.57658H119.807C125.63 7.57658 130.383 9.22219 134.069 12.5134C137.754 15.8046 139.596 20.207 139.596 25.7205C139.596 31.0933 137.782 35.4816 134.153 38.8854C130.524 42.261 125.7 43.9488 119.68 43.9488H102.338V36.3537H119.089C122.493 36.3537 125.208 35.4254 127.233 33.5688C129.286 31.7122 130.313 29.1524 130.313 25.8893C130.313 22.8512 129.3 20.4039 127.275 18.5473C125.278 16.6907 122.606 15.7624 119.258 15.7624H107.275V68H98.0339ZM132.507 68L115.081 40.4044L124.786 39.5183L143.351 68H132.507ZM167.464 69.0971C160.91 69.0971 155.452 66.8748 151.092 62.4302C146.76 57.9857 144.594 52.5425 144.594 46.1007C144.594 39.6027 146.774 34.1454 151.134 29.729C155.495 25.3126 160.938 23.1044 167.464 23.1044C173.99 23.1044 179.433 25.3267 183.794 29.7712C188.182 34.1876 190.376 39.6308 190.376 46.1007C190.376 52.5425 188.196 57.9857 183.836 62.4302C179.476 66.8748 174.018 69.0971 167.464 69.0971ZM167.464 60.9956C171.402 60.9956 174.75 59.5891 177.506 56.7761C180.263 53.935 181.642 50.3765 181.642 46.1007C181.642 41.7687 180.249 38.2102 177.464 35.4254C174.707 32.6124 171.374 31.2059 167.464 31.2059C163.554 31.2059 160.221 32.6124 157.464 35.4254C154.707 38.2102 153.329 41.7687 153.329 46.1007C153.329 50.3765 154.693 53.935 157.422 56.7761C160.178 59.5891 163.526 60.9956 167.464 60.9956ZM197.769 68V24.2015H206.335V31.7122L205.491 30.7417H206.462C207.756 28.5194 209.64 26.691 212.116 25.2563C214.591 23.8217 217.348 23.1044 220.386 23.1044C223.536 23.1044 226.335 23.9202 228.783 25.5517C231.23 27.1551 232.89 29.2227 233.762 31.7544C235.478 28.9133 237.616 26.7613 240.175 25.2985C242.763 23.8358 245.619 23.1044 248.741 23.1044C253.551 23.1044 257.279 24.5953 259.923 27.5771C262.595 30.5589 263.931 34.5533 263.931 39.5605V68H255.112V41.628C255.112 38.1962 254.353 35.566 252.834 33.7376C251.315 31.9091 249.093 30.9949 246.167 30.9949C243.213 30.9949 240.654 32.1623 238.488 34.4971C236.35 36.8037 235.281 39.7433 235.281 43.3159V68H226.42V41.7124C226.42 38.3087 225.66 35.6785 224.141 33.8219C222.65 31.9372 220.428 30.9949 217.474 30.9949C214.521 30.9949 211.975 32.1763 209.837 34.5393C207.699 36.8741 206.63 39.8137 206.63 43.358V68H197.769ZM287.057 69.0971C282.247 69.0971 278.308 67.789 275.242 65.1729C272.176 62.5287 270.643 59.0968 270.643 54.8773C270.643 50.4609 272.345 46.9446 275.749 44.3285C279.18 41.6843 283.639 40.3622 289.124 40.3622C291.319 40.3622 293.527 40.6013 295.749 41.0795C297.971 41.5577 299.842 42.1906 301.361 42.9783V40.32C301.361 37.2819 300.292 34.8909 298.154 33.1468C296.044 31.3746 293.428 30.4885 290.306 30.4885C288.59 30.4885 287.099 30.6995 285.833 31.1215C284.567 31.5153 283.428 32.0638 282.415 32.7671C281.403 33.4422 280.432 34.2439 279.504 35.1722C278.576 36.1005 278.111 36.5646 278.111 36.5646L272.162 31.7122C272.162 31.7122 272.795 31.0793 274.061 29.8134C275.355 28.5476 276.803 27.3942 278.407 26.3534C280.01 25.3126 281.825 24.5109 283.85 23.9483C285.875 23.3857 288.309 23.1044 291.15 23.1044C296.888 23.1044 301.459 24.6234 304.863 27.6615C308.295 30.6995 310.011 34.8487 310.011 40.109V68H301.53V58.5061L303.808 61.4598H301.403C299.94 63.8508 297.943 65.7215 295.411 67.0717C292.88 68.422 290.095 69.0971 287.057 69.0971ZM288.745 62.0083C292.486 62.0083 295.524 60.7002 297.859 58.0841C300.194 55.4399 301.361 52.5706 301.361 49.4763V49.2232C300.067 48.3793 298.45 47.7041 296.509 47.1978C294.596 46.6633 292.556 46.3961 290.39 46.3961C287.015 46.3961 284.342 47.0853 282.373 48.4637C280.404 49.842 279.42 51.8393 279.42 54.4554C279.42 56.7902 280.277 58.6327 281.993 59.9829C283.709 61.3332 285.96 62.0083 288.745 62.0083ZM320.38 68V24.2015H329.241V68H320.38ZM324.811 17.83C323.264 17.83 321.942 17.2955 320.845 16.2266C319.748 15.1295 319.199 13.7933 319.199 12.218C319.199 10.6428 319.748 9.33471 320.845 8.2939C321.942 7.22496 323.264 6.69049 324.811 6.69049C326.414 6.69049 327.751 7.22496 328.819 8.2939C329.888 9.33471 330.423 10.6428 330.423 12.218C330.423 13.7933 329.888 15.1295 328.819 16.2266C327.751 17.2955 326.414 17.83 324.811 17.83ZM340.178 68V24.2015H348.786V32.0076L347.604 30.7417H348.87C350.22 28.5194 352.189 26.691 354.777 25.2563C357.365 23.8217 360.136 23.1044 363.09 23.1044C368.041 23.1044 371.909 24.6093 374.693 27.6193C377.478 30.6292 378.871 34.694 378.871 39.8137V68H370.01V41.5859C370.01 38.2946 369.208 35.7067 367.605 33.8219C366.029 31.9372 363.568 30.9949 360.221 30.9949C357.098 30.9949 354.454 32.1623 352.288 34.4971C350.122 36.8037 349.039 39.7152 349.039 43.2315V68H340.178ZM407.858 68V7.57658H431.15C437.254 7.57658 442.233 9.27845 446.087 12.6822C449.941 16.0578 451.868 20.6149 451.868 26.3534C451.868 31.7825 449.997 36.2271 446.256 39.6871C442.514 43.1471 437.564 44.8771 431.403 44.8771H413.048V35.9739H430.053C433.091 35.9739 435.51 35.1441 437.31 33.4844C439.139 31.8247 440.053 29.5462 440.053 26.6488C440.053 23.9483 439.153 21.7682 437.353 20.1085C435.58 18.4489 433.203 17.619 430.222 17.619H419.715V68H407.858ZM442.458 68L425.285 40.6576L437.69 39.8559L456.129 68H442.458ZM476.138 69.1393C471.216 69.1393 467.362 67.6906 464.577 64.7932C461.792 61.8958 460.4 57.8732 460.4 52.7254V24.1171H471.581V50.2359C471.581 53.3302 472.285 55.7072 473.691 57.3668C475.098 59.0265 477.165 59.8563 479.894 59.8563C482.819 59.8563 485.196 58.8015 487.025 56.6917C488.881 54.582 489.81 51.9659 489.81 48.8434V24.1171H500.949V68H490.274V56.3963L495.633 61.7551H490.147C488.825 64.0337 486.954 65.834 484.535 67.1561C482.116 68.4782 479.317 69.1393 476.138 69.1393ZM536.384 69.1393C533.036 69.1393 530.012 68.4782 527.312 67.1561C524.64 65.8059 522.558 63.9915 521.067 61.7129H518.578L521.194 59.139V68H510.645V7.57658H521.784V29.5602L521.658 29.7712C523.064 27.6896 525.047 26.044 527.607 24.8344C530.195 23.5967 533.05 22.9778 536.173 22.9778C542.136 22.9778 547.158 25.1157 551.237 29.3915C555.344 33.6391 557.397 39.1807 557.397 46.0163C557.397 52.7676 555.372 58.3092 551.321 62.6412C547.298 66.9733 542.319 69.1393 536.384 69.1393ZM533.768 59.4344C537.34 59.4344 540.308 58.2107 542.671 55.7634C545.034 53.288 546.215 50.053 546.215 46.0585C546.215 42.0641 545.034 38.8432 542.671 36.3959C540.308 33.9485 537.34 32.7249 533.768 32.7249C530.28 32.7249 527.354 33.9626 524.991 36.438C522.628 38.8854 521.433 42.0922 521.405 46.0585C521.376 49.9124 522.53 53.1051 524.865 55.6368C527.228 58.1685 530.195 59.4344 533.768 59.4344ZM584.674 69.1393C578.007 69.1393 572.493 66.9733 568.133 62.6412C563.801 58.2811 561.635 52.7535 561.635 46.0585C561.635 39.3917 563.801 33.8782 568.133 29.518C572.465 25.1579 577.88 22.9778 584.378 22.9778C590.848 22.9778 596.094 24.9891 600.117 29.0117C604.14 33.0062 606.151 38.0696 606.151 44.202V48.548H567.247V42.05H595.855C595.658 39.1526 594.533 36.7615 592.48 34.8768C590.426 32.9921 587.74 32.0498 584.42 32.0498C580.904 32.0498 577.965 33.3297 575.602 35.8895C573.239 38.4493 572.057 41.825 572.057 46.0163C572.057 50.3484 573.337 53.8224 575.897 56.4385C578.485 59.0265 581.621 60.3205 585.306 60.3205C587.135 60.3205 588.738 60.0814 590.117 59.6032C591.495 59.0968 592.747 58.3795 593.872 57.4512C594.997 56.4948 596.193 55.0602 597.459 53.1473L605.138 57.5356C603.366 60.5174 601.523 62.7959 599.611 64.3712C597.726 65.9184 595.602 67.0998 593.239 67.9156C590.876 68.7314 588.021 69.1393 584.674 69.1393ZM612.919 68V24.1171H623.678V32.1341L622.37 30.5307H623.763C625.141 28.2803 627.11 26.4659 629.67 25.0876C632.258 23.6811 635.029 22.9778 637.982 22.9778C642.877 22.9778 646.703 24.4546 649.46 27.4083C652.244 30.3619 653.637 34.3986 653.637 39.5183V68H642.497V42.0078C642.497 39.0823 641.78 36.7897 640.345 35.13C638.939 33.4422 636.773 32.5983 633.847 32.5983C631.091 32.5983 628.77 33.611 626.885 35.6363C625 37.6617 624.058 40.2215 624.058 43.3159V68H612.919ZM678.688 69.1393C675.565 69.1393 672.879 68.7876 670.628 68.0844C668.378 67.4093 666.395 66.4107 664.679 65.0885C662.991 63.7664 661.627 62.3177 660.586 60.7424C659.545 59.139 659.025 58.3373 659.025 58.3373L666.62 53.6537C666.62 53.6537 667.014 54.2163 667.801 55.3415C668.589 56.4667 669.489 57.4512 670.502 58.2951C671.514 59.1109 672.682 59.7438 674.004 60.1939C675.354 60.644 676.958 60.869 678.814 60.869C681.036 60.869 682.837 60.433 684.215 59.561C685.593 58.6889 686.283 57.4793 686.283 55.9322C686.283 54.4132 685.664 53.2598 684.426 52.4722C683.216 51.6564 680.643 50.7844 676.704 49.8561C670.994 48.5059 666.943 46.7337 664.552 44.5395C662.161 42.3172 660.966 39.4902 660.966 36.0583C660.966 32.0638 662.611 28.8851 665.902 26.5222C669.222 24.1593 673.413 22.9778 678.477 22.9778C681.036 22.9778 683.287 23.245 685.228 23.7795C687.169 24.314 688.899 25.1157 690.418 26.1846C691.937 27.2536 693.217 28.4491 694.258 29.7712C695.298 31.0933 695.819 31.7544 695.819 31.7544L688.646 36.7334C688.646 36.7334 688.308 36.3115 687.633 35.4676C686.958 34.6237 686.142 33.8782 685.186 33.2312C684.229 32.5561 683.188 32.0638 682.063 31.7544C680.938 31.4168 679.7 31.248 678.35 31.248C676.24 31.248 674.552 31.67 673.287 32.5139C672.049 33.3578 671.43 34.3986 671.43 35.6363C671.43 37.0428 672.063 38.1399 673.329 38.9276C674.595 39.7152 677.253 40.5872 681.304 41.5437C686.93 42.8376 690.924 44.5536 693.287 46.6915C695.65 48.8293 696.831 51.7127 696.831 55.3415C696.831 59.6172 695.158 62.9928 691.81 65.4683C688.463 67.9156 684.089 69.1393 678.688 69.1393Z" fill="#1D1D1F"/>
</svg>
